<svg version="1" xmlns="http://www.w3.org/2000/svg" width="280" height="280" viewBox="0 0 210.000000 210.000000"><path d="M0 45.5C0 77.4.3 91 1.1 91c.7 0 .9 2.5.4 7.7-.3 4.3-.8 31.1-1.1 59.5L-.1 210H210V0H0v45.5zm182.7-14.1c-.4.9 0 1.2 1.2.9 1-.3 3.1.8 5.1 2.7 2.9 2.7 3.7 3 5.3 2 1-.6 2.2-.9 2.5-.6.3.3 0 .6-.6.6-.7 0-1.2.7-1.2 1.5 0 2.1 3.8 1.9 4.3-.3.3-.9.6-.1.7 1.8.3 4.9 0 7.4-1.1 7.8-1.3.5-1.1 4.6.3 6 1.4 1.4 2.4 74.7 1.3 99.6-.6 14.5-1 17.1-2.6 18.7-1.8 1.8-4.8 1.9-82.4 1.9-72.9 0-80.4-.1-79.8-1.6.3-.9 1.3-1.4 2.4-1.1 1.1.3 1.9.1 1.9-.3 0-1.5-3.5-1.6-4.6-.1-1 1.3-1.4 1.3-2.8-.1-.9-.9-2.5-2-3.6-2.3-2.2-.7-2.6-2-1-3 .5-.3 1-1.7 1-3.1 0-3.2 1.8-3.1 2.6.1.4 1.4.9 2.3 1.2 2 .3-.3 1.5.3 2.6 1.2 1.8 1.5 1.8 1.4-.1-.8-3.2-3.6-2.9-5.8.4-2.3 1.6 1.7 2.8 2.4 3 1.7.3-.7 1-1 1.6-.7.8.3 1.3-.6 1.5-2.2.3-3.8 1.2-4.4 1.2-.8 0 1.6.5 3.6 1 4.4.8 1.3 1 1.2 1-.3 0-1.4.7-1.7 3.6-1.4 2 .2 4 1 4.5 1.8.7 1.1.9 1.1.9-.4 0-1.3.8-1.7 3.5-1.7 1.9 0 3.5.5 3.5 1.1 0 .5.4.7 1 .4.5-.3 1-1.7 1-3 0-3.1.8-3.4 5-2.2 2.7.8 3.1 1.1 1.5 1.5-3.6.7-4.1 2.2-.8 2.2 2.8 0 4.4-1.5 4.7-4.4.1-.8 3-2.4 4.9-2.5.4-.1.8 1.8.8 4.1.1 2.5.3 3.2.6 1.8.9-5.9 1.4-7 3.2-7 2.2 0 3.1 1.9 3.1 6.6 0 3.3.1 3.4 2.2 2.3 3.3-1.8 8.7-2.8 9.4-1.8.9 1.5 2 1 3.1-1.3 1-2.3 1-2.3 4.6 1.3 2.7 2.7 3.7 3.2 4.2 2.2.9-2.5.6-3.5-.9-3-.8.3-2.2-.3-3.2-1.5-1.8-1.9-1.8-2 .1-3.5 2-1.4 2-1.4.1-2.9-1.1-.8-2.9-1.4-4-1.4-1.7 0-1.8.2-.6 1 .8.5 1 1 .5 1-.6 0-1.6-.5-2.3-1.2-1.7-1.7-2.6-.2-2.4 3.7.3 3.5.2 3.5-4 3.5-4.7 0-4.2-1.6.7-2.3 3-.4 2.9-.4-.5-.6-3.1-.3-3.2-.4-1.1-1 1.4-.4 2.6-1.2 2.9-1.9.3-.9-.7-1.1-3.7-.6-2.9.5-4.1.3-4.1-.6 0-.8-1-.9-3-.5-2.1.5-3 .3-3-.6 0-.8-.6-.7-1.8.4-1 1-3.2 1.7-4.8 1.8-1.6 0-2.3.3-1.7.6 2.2.8-1.4 3.5-3.7 2.8-2.3-.7-2.7-2.5-.6-2.5.8 0 1.8-.5 2.1-1 .8-1.3-5.7-.8-6.7.5-.4.6-.8.2-.8-.8 0-.9-.4-1.7-.9-1.7-.6 0-.9 1.7-.7 3.7.4 5.4-.2 6.3-4 6.3-3.4 0-3.4-.1-3.4-4.5 0-2.5-.4-4.5-.9-4.5-1.4 0-2.1 2.8-1.4 6 .5 2.9.4 3-3.1 3H45v-4.5c0-4.3-1.1-5.8-2.6-3.3-.5.7-1.1.5-2.1-.8-1-1.4-1.7-1.6-3-.8-2.5 1.6-2.8 3.3-.4 2.7 3.1-.8 3.9 2.4 1.2 5-2.1 2.1-2.1 2.1-2.1.1 0-1.1-.6-2.8-1.4-3.9-.7-1.1-1.2-2.8-1-3.7.1-1-.2-2-.7-2.4-.5-.3-.9 1.1-.9 3 0 4.4-2.4 4.9-3.5.8-.4-1.5-1-2.1-1.2-1.4-.3.6-1 .9-1.5.6-.6-.4-.8-.3-.5.3.4.6.9 3.5 1.2 6.6l.6 5.7-3.3-.6c-1.8-.4-3.5-.7-3.8-.6-3 0-4.2.5-5.7 2.1-1.3 1.4-2.3 1.7-3.3 1.1-1.3-.8-1.5-10.1-1.8-66.9L8.9 35l2.5-2.5 2.5-2.5h84.7c71.7 0 84.5.2 84.1 1.4zm-151 142.2c-.3.3-1.2.4-1.9.1-.8-.3-.5-.6.6-.6 1.1-.1 1.7.2 1.3.5z"/><path d="M95.6 34.2c2.3 3.9 1.2 7.6-2.4 8l-2.7.3 3.4 1.8c1.9.9 3.5 1.6 3.6 1.5.1-.2.5-2.2.8-4.4.4-3.4 0-4.7-2-7l-2.4-2.9 1.7 2.7zM175 33.1c0 .5.5.7 1 .4.6-.3 1-.8 1-1.1 0-.2-.4-.4-1-.4-.5 0-1 .5-1 1.1zM67.7 46.6c-1.1 1.1-.8 11.4.3 11.4.6 0 1-1.6 1-3.6 0-4.1 1.5-3.8 2.3.6.8 3.8 2.4 3.9 3.2 0 .8-3.6 2.5-4 2.5-.5 0 1.4.5 2.5 1.1 2.5 1.4 0 .7-9.2-.8-9.7-.6-.2-1.7 1.2-2.4 3.1-1.6 4.6-2.5 4.5-3.6-.1-.8-3.6-2.2-5-3.6-3.7zM82.2 49.1c-.5 1.3-1.2 3.6-1.6 5.2-.6 2.6-.5 2.7 1.4 1.5 1.7-1.1 2.2-1 3.1.2.8 1.1.9.3.4-3-.8-5.6-2.1-7.2-3.3-3.9zM88.3 52c0 2.5.2 3.5.4 2.2.2-1.2.2-3.2 0-4.5-.2-1.2-.4-.2-.4 2.3zM91.1 52l.1 4.5 1-3.4c.6-2.3.6-3.7-.1-4.4-.8-.8-1.1.2-1 3.3zM93.7 50.8c-.3 1.5-.1 3.4.4 4.2.9 1.7.9 1.7 1.3-2.8.4-4-1-5.2-1.7-1.4zM101.3 51.8c0 2.5.4 3.9.9 3.4.6-.6.5-2.3 0-4.3l-1-3.4.1 4.3zM104 50c0 .5.7.7 1.5.4 1-.4 1.5 0 1.5 1.4 0 1.1.7 2.3 1.6 2.6 2.5 1 3.1.6 1-.5-1.5-.9-1.6-1.3-.5-2 1.2-.8 1.2-1.1-.1-1.9-1.9-1.3-5-1.3-5 0zM98 59c0 .5.5 1 1 1 .6 0 1-.5 1-1 0-.6-.4-1-1-1-.5 0-1 .4-1 1zM87.2 59.5c.8.9 8.9 1.2 9.4.3.3-.4-1.8-.8-4.7-.8-2.9 0-5 .2-4.7.5zM80.3 60.7c.9.2 2.3.2 3 0 .6-.3-.1-.5-1.8-.5-1.6 0-2.2.2-1.2.5zM117.7 63.8c-3.2 3.5-1.1 9.2 3.4 9.2 1.4 0 1.9-.7 1.8-2.8-.1-1.7-.3-2.1-.6-.9-.8 3-3.8 1.6-3.8-1.8 0-2.4.5-3.1 2.3-3.3 1.2-.2 2-.8 1.7-1.3-1-1.4-3-1.1-4.8.9zM93.2 64.2c-.7.7-1.2 1.8-1.2 2.5 0 1.5-1.6 1.7-2.5.3-.3-.6-.1-1 .5-1s.8-.5.5-1c-1.3-2.2-2.5-.8-2.5 3 0 2.8.4 4 1.4 4 .8 0 1.7-.6 1.9-1.3.4-.9.8-.9 1.5.2 1.6 2.2 4.2.5 4.2-2.7 0-3.6-2.1-5.7-3.8-4zm2.8 3.9c0 2-1.5 2.6-2.5.9-.9-1.5.3-4.3 1.5-3.5.5.3 1 1.5 1 2.6zM101.5 64c-.4.6-1.1.7-1.7.4-.6-.4-.8.1-.4 1.4.4 1.2.2 3-.4 4.2-.7 1.3-.7 2 0 2 .5 0 1-.5 1-1.1 0-.8.4-.8 1.3-.1.9.8 1.2 0 1.2-3.4 0-4.7-.1-4.9-1-3.4zM105.3 67.5c0 2.7.2 3.8.4 2.2.2-1.5.2-3.7 0-5-.2-1.2-.4 0-.4 2.8zM108.1 67.5c.1 4.2.2 4.5.8 2l.8-3 1.3 2.7c2 4.1 3 3.4 2.9-2-.1-3.9-.2-4.2-.8-1.7l-.6 2.9-2.2-2.9-2.2-3v5zM79.5 66c-1.7 1.9-1.7 2.1 0 4 2.2 2.5 3.1 1.9 1.4-.8-1-1.7-1-2.3 0-3.6 1.9-2.3.7-2-1.4.4zM74 67.5c0 1.4.5 2.5 1 2.5.6 0 1-1.1 1-2.5s-.4-2.5-1-2.5c-.5 0-1 1.1-1 2.5zM83 66.8c0 1.9 1.8 4.2 3.2 4.2.5 0 .5-.8 0-1.8-.5-.9-.7-2.3-.5-3 .3-.6-.2-1.2-1.1-1.2-.9 0-1.6.8-1.6 1.8zM26 101.6v32.6l3.2-.6c1.8-.3 4.9-1.1 7-1.6l3.8-1.1.2-16.7.3-16.7L46 113l5.5 15.5 4.5-.4c8.1-.6 8.1-.7 13-15.5 2.4-7.5 4.8-13.6 5.2-13.6.4 0 .8 6.1.8 13.6v13.6l6.3-.7c6.1-.7 6.3-.6 10 2.8 3.3 3.2 3.7 4.1 3.7 8.6 0 2.8.5 5.1 1 5.1.6 0 1-2.5 1-5.5 0-4.6.3-5.6 2.3-6.6 1.2-.6 3.4-2.2 4.8-3.6 2.5-2.3 3.5-2.4 14.5-2.6 9-.2 12.7-.7 15-1.9 3.8-2.1 4.4-3.5 4.4-9.7 0-5.7-2-8.2-10.2-12.5-2.9-1.6-7.5-4.2-10.1-5.9-4.5-2.8-4.8-3.2-4.5-6.6.3-3.3.6-3.6 3.3-3.6 2.9 0 3 .2 3.3 4.9l.3 4.8 3.7-.6c2-.3 5.6-.6 8-.6h4.3l-.3-5.8c-.3-5.5-.4-5.8-4.1-7.6-4.3-2-23.7-3.5-23.7-1.8 0 .5-1.5 1.2-3.2 1.5-1.8.4-4.4.9-5.7 1.3-1.9.6-2.2.4-1.9-1.2.2-1.4 1.5-2.1 4.3-2.5l4-.6-4.6-.2-4.7-.1-.7 6.5c-.5 5.4-1 6.5-2.5 6.5-1.6 0-1.9-.9-2.2-5.1l-.3-5.1-5-.3c-2.7-.2-8.3-.5-12.4-.7l-7.3-.3-3.6 12.8c-1.9 7-3.8 12.5-4.1 12.1-.3-.3-2.4-6.7-4.6-14.2l-4.1-13.7-10-2.2c-5.4-1.2-10.7-2.2-11.6-2.2-1.7-.1-1.8 2.1-1.8 32.5zm85.5 1.8c6.8 3.7 8.5 6.2 7.6 10.9-.6 2.7-1.1 3.2-3.6 3.2-2.9 0-3-.1-3.5-6l-.5-5.9-3.5-.1c-3.1 0-3.5-.3-3.8-2.8-.2-1.5 0-2.7.5-2.7.4 0 3.5 1.5 6.8 3.4zM176.2 70.9l-7.3 1.6-3.6 9c-1.9 5-3.9 9.4-4.4 9.9-.5.6-.9-2.8-.9-8.2V74l-3.7.6c-2.1.3-6 .8-8.8 1.2l-5 .7-.3 24.7c-.3 28.2-1.5 25.2 10.6 26.3l7.2.7v-9.8c.1-11.2.5-11.1 4.9 2 1.6 4.8 3.1 9 3.4 9.2.8.9 18 4.4 18.5 3.9.5-.5-.6-3.8-8-22.7-4.6-11.9-4.8-12.9-3.5-15.5 1.4-2.7 9.7-24.8 9.7-25.8 0-.6.3-.6-8.8 1.4z"/><path d="M74.1 74.4c.2.2 4.9.6 10.4.9 6.1.4 9.2.3 8-.3-1.9-.8-19.3-1.4-18.4-.6zM126 153.1c-1.8 5.1-2.9 5.4-5.1 1.1l-1.6-3.1-2.2 2.3c-1.2 1.3-2.4 3.9-2.7 5.8-.6 3.3-.4 3.5 2.6 4.2 5.3 1 6.7.7 7.3-1.5.7-2.6 3.1-2 3.5.9.2 1.4.8 1.9 1.9 1.5.8-.3 1.9 0 2.4.8.7 1.1.9 1 .9-.5 0-1.6.6-1.8 4.5-1.4 4.7.6 4.9.4 4.5-4-.1-1.5.4-2.2 1.5-2.2s1.5.5 1.1 1.5c-.6 1.8.2 4.5 1.5 4.5.5 0 .9-.7.9-1.5 0-.9 1.2-2.1 2.7-2.8l2.7-1.2-3-.6-2.9-.6 3.5-1c4.3-1.2 5-.9 5 2.6 0 1.5.7 3.6 1.5 4.7 1.3 1.8 1.5 1.8 4.5.2l3-1.7.1 2.7.1 2.7.8-2.7c1.4-4.6 2-5.1 4.6-3.3 1.3.8 2.4 1.1 2.4.6 0-.5-.4-1.3-1-1.6-1.6-1-1.2-3.5.6-3.5 1.4 0 1.6.7 1.1 4-.3 2.2-.1 4 .4 4s.9-1.1.9-2.5.4-2.5.8-2.5c1.6 0 3.2 2.5 3.2 4.9 0 2.4.1 2.4 1.5.5.9-1.2 1.4-1.4 1.5-.6 0 2.5 2 .1 2-2.4 0-1.5.4-2.3 1.1-1.9.6.4.8 1.3.5 2.1-.3.8-.1 1.4.4 1.4.6 0 1-.7 1-1.6 0-2.3 2.4-1.1 2.8 1.4.2 1.2.7 2 1.2 1.7.5-.3.7-1.2.3-2-.3-1 .1-1.5 1.3-1.6 1.7 0 1.7-.2-.3-1.6-1.6-1.1-2.3-2.5-2.3-5 0-2-.4-3.2-1-2.8-.5.3-1 1.4-1 2.4s-.7 2.4-1.5 3.1c-1.2 1-1.7.5-2.9-2.5-1.8-4.2-3.6-3.8-3.6.6 0 3.5-1.9 3.5-3.5.1-.6-1.4-1.6-2-2.6-1.7-1 .3-2 .1-2.4-.5-.3-.5-1.5-1-2.6-1s-1.7.4-1.4 1c.3.5.2 1-.3 1-.6 0-1.2-.7-1.6-1.5-.7-2-2.6-1.9-2.6.1 0 1.4-.3 1.4-1.5.4-1.3-1-1.9-.9-3.6.6-1.6 1.5-1.9 1.5-1.4.2.6-1.5.2-1.5-4.6-.3-4.2 1.1-5.6 1.2-6.8.2-1.2-.9-1.3-.9-.7 0 1.1 1.9-.5 1.5-2-.5-1.2-1.5-1.3-1-1.4 3.5v5.3h-3.5c-3.5 0-3.5 0-3.5-4.5 0-2.5-.4-4.5-.9-4.5-1.3 0-2.1 2.7-1.4 4.6.4 1.2.2 1.5-.8 1.2-.8-.3-1.6-2.4-1.9-5.3l-.5-4.8-1.5 4.4zm33.8 4.6c-.3 3-2.5 4.2-3.4 1.9-.9-2.2.2-4.6 2.1-4.6 1.2 0 1.5.8 1.3 2.7zm-37.6 1.2c2.2 1.9 1.4 3.1-2.3 3.1-2.9 0-3.5-1.2-2.3-4.4.6-1.6 1.5-1.4 4.6 1.3zm8.8 3.1c0 .5-.4 1-1 1-.5 0-1-.5-1-1 0-.6.5-1 1-1 .6 0 1 .4 1 1zM32.1 167.6c0 1.1.3 1.4.6.6.3-.7.2-1.6-.1-1.9-.3-.4-.6.2-.5 1.3zM57 169.1c0 .5.5.7 1 .4.6-.3 1-.8 1-1.1 0-.2-.4-.4-1-.4-.5 0-1 .5-1 1.1z"/></svg>